# xmcd
#
# Track frame offsets:
#	150
#	17261
#	35819
#	55364
#	74153
#	91776
#	110296
#	126731
#	145075
#	161801
#	179667
#	200144
#	219194
#	235375
#	253814
#	270910
#	289468
#
# Disc length: 4130 seconds
#
# Revision: 1
# Processed by: cddbd v1.5.1PL0 Copyright (c) Steve Scherf et al.
# Submitted via: audiograbber 1.83.01
#
DISCID=0f102011
DTITLE=TopTunes Karaoke - TT268
DYEAR=1900
DGENRE=KARAOKE
TTITLE0=Shooter Jennings Featuring George Jones - 4th Of July
TTITLE1=Sara Evans - Real Fine Place To Start
TTITLE2=Brad Paisley - Alcohol
TTITLE3=Trace Adkins - Arlington
TTITLE4=Toby Keith - As Good As I Once Was
TTITLE5=Gary Allan - Best I Ever Had
TTITLE6=Neal McCoy - Billy's Got His Beer Goggles On
TTITLE7=Miranda Lambert - Bring Me Down
TTITLE8=Tim McGraw - Do You Want Fries With That?
TTITLE9=Bobby Pinson - Don't Ask Me How I Know
TTITLE10=Trisha Yearwood - Georgia Rain
TTITLE11=Darryl Worley - If Something Should Happen
TTITLE12=Kenny Chesney - Keg In The Closet
TTITLE13=Reba McEntire - My Sister
TTITLE14=Jamie O'Neal - Somebody's Hero
TTITLE15=Sara Evans - Real Fine Place To Start (Vocal Version)
TTITLE16=Trisha Yearwood - Georgia Rain (Vocal Version)
EXTD=
EXTT0=
EXTT1=
EXTT2=
EXTT3=
EXTT4=
EXTT5=
EXTT6=
EXTT7=
EXTT8=
EXTT9=
EXTT10=
EXTT11=
EXTT12=
EXTT13=
EXTT14=
EXTT15=
EXTT16=
PLAYORDER=
